<svg width="16" height="16" viewBox="0 0 16 16" fill="none" xmlns="http://www.w3.org/2000/svg">
<path d="M6.3598 0C2.85491 0 0 2.99086 0 6.66264C0 10.3344 2.85491 13.3253 6.3598 13.3253C7.88393 13.3253 9.28364 12.7583 10.3806 11.8171L14.1779 15.7951C14.2365 15.8591 14.3067 15.9101 14.3843 15.9453C14.462 15.9805 14.5456 15.9991 14.6302 16C14.7148 16.0009 14.7988 15.9841 14.8771 15.9506C14.9554 15.9171 15.0266 15.8675 15.0864 15.8048C15.1463 15.7422 15.1936 15.6676 15.2255 15.5855C15.2575 15.5035 15.2736 15.4155 15.2727 15.3269C15.2718 15.2382 15.2541 15.1507 15.2205 15.0693C15.187 14.9879 15.1382 14.9144 15.0772 14.853L11.2799 10.8749C12.1784 9.72572 12.7196 8.25935 12.7196 6.66264C12.7196 2.99086 9.86468 0 6.3598 0ZM6.3598 1.33253C9.17726 1.33253 11.4476 3.71101 11.4476 6.66264C11.4476 9.61428 9.17726 11.9928 6.3598 11.9928C3.54233 11.9928 1.27196 9.61428 1.27196 6.66264C1.27196 3.71101 3.54233 1.33253 6.3598 1.33253Z" fill="#233044"/>
</svg>
